# AST/ASF file generated using VICON BodyLanguage
# -----------------------------------------------
:version 1.10
:name VICON
:units
  mass 1.0
  length 0.45
  angle deg
:documentation
   .ast/.asf automatically generated from VICON data using
   VICON BodyBuilder and BodyLanguage model FoxedUp or BRILLIANT.MOD
:root
   order TX TY TZ RX RY RZ
   axis XYZ
   position 0 0 0  
   orientation 0 0 0 
:bonedata
  begin
     id 1 
     name lhipjoint
     direction 0.558404 -0.748506 0.357664 
     length 2.4234 
     axis 0 0 0  XYZ
  end
  begin
     id 2 
     name lfemur
     direction 0.34202 -0.939693 0  
     length 7.14567  
     axis 0 0 20  XYZ
    dof rx ry rz
    limits (-160.0 20.0)
           (-70.0 70.0)
           (-60.0 70.0)
  end
  begin
     id 3 
     name ltibia
     direction 0.34202 -0.939693 0   
     length 8.13956   
     axis 0 0 20   XYZ
    dof rx
    limits (-10.0 170.0)
  end
  begin
     id 4 
     name lfoot
     direction 0.0791314 -0.217412 0.972867   
     length 2.00134   
     axis -90 7.62852e-016 20   XYZ
    dof rx rz
    limits (-45.0 90.0)
           (-70.0 20.0)
  end
  begin
     id 5 
     name ltoes
     direction 1.53547e-011 -4.21922e-011 1   
     length 1.00735   
     axis -90 7.62852e-016 20   XYZ
    dof rx
    limits (-90.0 20.0)
  end
  begin
     id 6 
     name rhipjoint
     direction -0.496392 -0.78327 0.374276   
     length 2.31584  
     axis 0 0 0  XYZ 
  end
  begin
     id 7 
     name rfemur
     direction -0.34202 -0.939693 0   
     length 7.47417   
     axis 0 0 -20   XYZ
    dof rx ry rz
    limits (-160.0 20.0)
           (-70.0 70.0)
           (-70.0 60.0)
  end
  begin
     id 8 
     name rtibia
     direction -0.34202 -0.939693 0   
     length 7.69071   
     axis 0 0 -20   XYZ
    dof rx
    limits (-10.0 170.0)
 end
 begin
     id 9 
     name rfoot
     direction -0.103069 -0.28318 0.953512   
     length 2.16135  
     axis -90 -7.62852e-016 -20   XYZ
    dof rx rz
    limits (-45.0 90.0)
           (-20.0 70.0)
  end
  begin
     id 10 
     name rtoes
     direction -1.53581e-011 -4.21904e-011 1   
     length 1.07867   
     axis -90 -7.62852e-016 -20   XYZ
    dof rx
    limits (-90.0 20.0)
  end
  begin
     id 11 
     name lowerback
     direction -0.0258961 0.994776 -0.0987407   
     length 2.19412   
     axis 0 0 0   XYZ
    dof rx ry rz
    limits (-20.0 45.0)
           (-30.0 30.0)
           (-30.0 30.0)
  end
  begin
     id 12 
     name upperback
     direction 0.0402454 0.999185 0.00320666   
     length 2.18445   
     axis 0 0 0   XYZ
    dof rx ry rz
    limits (-20.0 45.0)
           (-30.0 30.0)
           (-30.0 30.0)
  end
  begin
     id 13 
     name thorax
     direction 0.0519376 0.997415 0.0496558   
     length 2.21487   
     axis 0 0 0   XYZ
    dof rx ry rz
    limits (-20.0 45.0)
           (-30.0 30.0)
           (-30.0 30.0)
  end
  begin
     id 14 
     name lowerneck
     direction -0.0921276 0.983211 0.157506   
     length 1.61201   
     axis 0 0 0   XYZ
    dof rx ry rz
    limits (-20.0 45.0)
           (-30.0 30.0)
           (-30.0 30.0)
  end
  begin
     id 15 
     name upperneck
     direction 0.0820814 0.98162 -0.172292   
     length 1.65275   
     axis 0 0 0   XYZ
    dof rx ry rz
    limits (-20.0 45.0)
           (-30.0 30.0)
           (-30.0 30.0)
  end
  begin
     id 16
     name head
     direction 0.0336554 0.996413 -0.0776455  
     length 1.66415  
     axis 0 0 0   XYZ
    dof rx ry rz
    limits (-20.0 45.0)
           (-30.0 30.0)
           (-30.0 30.0)
  end
  begin
     id 17 
     name lclavicle
     direction 0.94696 0.284418 -0.149576  
     length 3.41447  
     axis 0 0 0   XYZ
    dof ry rz
    limits (-20.0 10.0)
           (0.0 20.0)
  end
  begin
     id 18 
     name lhumerus
     direction 1 -0.000130264 -9.81312e-005   
     length 5.19964   
     axis 180 -30 -90   XYZ
    dof rx ry rz
    limits (-60.0 90.0)
           (-90.0 90.0)
           (-90.0 90.0)
  end
  begin
     id 19
     name lradius
     direction 1 -4.48961e-011 1.43854e-026   
     length 3.32189   
     axis 180 -30 -90   XYZ
    dof rx
    limits (-10.0 170.0)
  end
  begin
     id 20
     name lwrist
     direction 1 -4.48958e-011 3.1502e-026   
     length 1.66095   
     axis -1.97692e-014 90 90   XYZ
    dof ry
    limits (-180.0 0.0)
 end
  begin
     id 21 
     name lhand
     direction 1 -4.48927e-011 6.3004e-026   
     length 0.645616   
     axis -4.02019e-014 90 90   XYZ
    dof rx rz
    limits (-90.0 90.0)
           (-45.0 45.0)
  end
  begin
     id 22 
     name lfingers
     direction 1 -4.4904e-011 1.26008e-025   
     length 0.520512   
     axis -8.04039e-014 90 90   XYZ
    dof rx
    limits (0.0 90.0)
  end
  begin
     id 23
     name lthumb
     direction 0.707107 -6.34947e-011 0.707107   
     length 0.747354   
     axis -90 45 2.85299e-015   XYZ
    dof rx rz
    limits (-45.0 45.0)
           (-45.0 45.0)
  end
  begin
     id 24 
     name rclavicle
     direction -0.909391 0.383475 -0.161107   
     length 3.25176  
     axis 0 0 0   XYZ 
    dof ry rz
    limits (-10.0 20.0)
           (-20.0 0.0)
  end
  begin
     id 25 
     name rhumerus
     direction -1 -4.48965e-011 -1.81384e-027  
     length 5.6595   
     axis 180 30 90   XYZ
    dof rx ry rz
    limits (-90.0 60.0)
           (-90.0 90.0)
           (-90.0 90.0)
  end
  begin
     id 26 
     name rradius
     direction -1 -4.48996e-011 -8.09397e-027   
     length 3.37604   
     axis 180 30 90   XYZ
    dof rx
    limits (-10.0 170.0)
  end
  begin
     id 27 
     name rwrist
     direction -1 -4.48927e-011 -1.56669e-026   
     length 1.68802   
     axis 1.21142e-014 -90 -90   XYZ
    dof ry
    limits (-180.0 0.0)
  end
  begin
     id 28
     name rhand
     direction -1 -4.48912e-011 -3.13339e-026   
     length 0.824702   
     axis 1.99937e-014 -90 -90   XYZ
    dof rx rz
    limits (-90.0 90.0)
           (-45.0 45.0)
  end
  begin
     id 29
     name rfingers
     direction -1 -4.49011e-011 -6.26677e-026   
     length 0.664896   
     axis 3.99874e-014 -90 -90   XYZ
    dof rx
    limits (0.0 90.0)
  end
  begin
     id 30
     name rthumb
     direction -0.707107 -6.34931e-011 0.707107   
     length 0.954662   
     axis -90 -45 -2.85299e-015   XYZ
    dof rx rz
    limits (-45.0 45.0)
           (-45.0 45.0)
  end
:hierarchy
  begin
    root lhipjoint rhipjoint lowerback
    lhipjoint lfemur
    lfemur ltibia
    ltibia lfoot
    lfoot ltoes
    rhipjoint rfemur
    rfemur rtibia
    rtibia rfoot
    rfoot rtoes
    lowerback upperback
    upperback thorax
    thorax lowerneck lclavicle rclavicle
    lowerneck upperneck
    upperneck head
    lclavicle lhumerus
    lhumerus lradius
    lradius lwrist
    lwrist lhand lthumb
    lhand lfingers
    rclavicle rhumerus
    rhumerus rradius
    rradius rwrist
    rwrist rhand rthumb
    rhand rfingers
  end

#!OML:ASF F:\VICON\USERDATA\INSTALL\rory3\rory3.ASF
:FULLY-SPECIFIED
:DEGREES
426
root 10.5406 17.7495 -14.7364 4.44953 -42.0173 -1.04557
lowerback 6.21812 -1.19403 -4.96372
upperback 2.0997 -1.87255 2.15669
thorax -1.08104 -0.964347 5.15744
lowerneck -10.522 -1.30603 -11.9969
upperneck 29.2322 -3.2716 12.4547
head 11.583 -1.49922 6.35842
rclavicle -4.51241e-014 1.21259e-014
rhumerus -36.4666 -22.2625 -67.397
rradius 33.3067
rwrist -14.2675
rhand -12.1087 16.2466
rfingers 7.12502
rthumb 13.9523 -13.2653
lclavicle -4.51241e-014 1.21259e-014
lhumerus -19.4125 21.7055 76.1162
lradius 24.1924
lwrist -15.6964
lhand -3.86254 30.5763
lfingers 7.12502
lthumb 21.886 59.3585
rfemur -23.6744 7.29965 9.52511
rtibia 36.3137
rfoot -13.2038 -2.97555
rtoes 5.29303
lfemur -16.4731 2.91265 -22.9626
ltibia 37.0925
lfoot -22.8268 13.8211
ltoes 9.29403
427
root 10.5519 17.7513 -14.7352 4.81457 -42.3042 -1.3884
lowerback 6.37977 -1.17067 -4.91845
upperback 1.98086 -1.84365 2.35757
thorax -1.2923 -0.941156 5.34818
lowerneck -10.1249 -1.21208 -12.4822
upperneck 28.9736 -3.1465 12.7854
head 11.3902 -1.46655 6.57264
rclavicle -6.28657e-015 -5.96354e-015
rhumerus -36.8427 -22.219 -66.9494
rradius 33.1347
rwrist -14.2587
rhand -12.3584 16.1505
rfingers 7.12502
rthumb 13.7116 -13.3778
lclavicle -6.28657e-015 -5.96354e-015
lhumerus -19.294 21.5489 76.4905
lradius 23.4627
lwrist -17.6498
lhand -6.40506 28.3382
lfingers 7.12502
lthumb 19.4429 57.3861
rfemur -23.9169 7.42608 9.78121
rtibia 36.2437
rfoot -12.96 -2.95785
rtoes 4.11313
lfemur -16.659 3.05246 -22.7262
ltibia 37.1214
lfoot -22.8732 13.9094
ltoes 9.62688
428
root 10.5644 17.7539 -14.7364 5.2182 -42.6519 -1.80522
lowerback 6.6936 -1.14638 -5.13302
upperback 1.8433 -1.83412 2.72614
thorax -1.59075 -0.924848 5.87133
lowerneck -9.88628 -1.14495 -12.7191
upperneck 28.8038 -3.01563 12.7984
head 11.2577 -1.43542 6.6226
rclavicle 3.32467e-014 -9.14409e-015
rhumerus -37.1099 -21.223 -66.7269
rradius 33.2077
rwrist -15.1184
rhand -12.7689 15.8746
rfingers 7.12502
rthumb 13.3159 -13.68
lclavicle 3.32467e-014 -9.14409e-015
lhumerus -19.4515 21.8517 76.8537
lradius 23.0599
lwrist -19.6237
lhand -8.17262 26.3656
lfingers 7.12502
lthumb 17.7427 55.5761
rfemur -24.1434 7.53597 10.077
rtibia 36.1726
rfoot -12.8133 -2.71702
rtoes 4.78283
lfemur -16.8339 3.13823 -22.4452
ltibia 37.1672
lfoot -22.9405 14.0885
ltoes 9.79027
429
root 10.571 17.7547 -14.7208 5.21934 -43.0947 -1.73899
lowerback 6.75163 -1.11798 -5.50981
upperback 1.84598 -1.82208 2.89115
thorax -1.60339 -0.919016 6.26272
lowerneck -10.0321 -1.18506 -12.7432
upperneck 28.9239 -3.01741 12.6347
head 11.3345 -1.45589 6.57115
rclavicle -6.2319e-014 2.24627e-014
rhumerus -37.3157 -19.8516 -66.7847
rradius 33.3844
rwrist -16.4899
rhand -13.0608 15.5927
rfingers 7.12502
rthumb 13.0346 -13.98
lclavicle -6.2319e-014 2.24627e-014
lhumerus -19.6784 22.2348 77.1675
lradius 23.6763
lwrist -19.6343
lhand -7.93017 26.571
lfingers 7.12502
lthumb 17.976 55.7603
rfemur -24.2404 7.47233 9.95913
rtibia 36.0775
rfoot -12.7452 -2.27738
rtoes 4.99586
lfemur -16.8639 3.27818 -22.6158
ltibia 37.2583
lfoot -23.0749 14.3595
ltoes 9.46106
430
root 10.5777 17.7542 -14.6979 5.32829 -43.6665 -1.86627
lowerback 6.61889 -1.05824 -5.44795
upperback 1.92469 -1.73175 2.94802
thorax -1.4612 -0.881775 6.27499
lowerneck -9.96309 -1.15753 -12.8174
upperneck 28.8709 -2.93404 12.5247
head 11.2869 -1.43936 6.54654
rclavicle 3.54831e-014 7.55382e-015
rhumerus -37.5319 -21.3328 -65.8142
rradius 32.7059
rwrist -14.9933
rhand -12.4116 16.0067
rfingers 7.12502
rthumb 13.6603 -13.525
lclavicle 3.54831e-014 7.55382e-015
lhumerus -19.5974 22.3681 77.4492
lradius 24.9008
lwrist -17.3773
lhand -5.76305 28.9449
lfingers 7.12502
lthumb 20.0601 57.9294
rfemur -24.3849 7.62399 9.97144
rtibia 36.0249
rfoot -12.6635 -1.94511
rtoes 4.058
lfemur -16.8344 3.56357 -22.6507
ltibia 37.274
lfoot -23.1996 14.5811
ltoes 9.66613
431
root 10.5887 17.7553 -14.6884 5.92867 -44.0908 -2.56649
lowerback 6.7241 -1.20798 -5.16717
upperback 1.80332 -1.91371 3.23841
thorax -1.61838 -0.965678 6.44064
lowerneck -9.89172 -0.862013 -12.9866
upperneck 28.9799 -2.45875 12.4092
head 11.2382 -1.26067 6.59124
rclavicle -9.83984e-014 1.90833e-014
rhumerus -37.6115 -20.4808 -65.8121
rradius 32.5363
rwrist -15.3018
rhand -12.5462 15.834
rfingers 7.12502
rthumb 13.5306 -13.7064
lclavicle -9.83984e-014 1.90833e-014
lhumerus -19.7791 23.1519 77.3775
lradius 25.7848
lwrist -15.4813
lhand -4.10788 30.8311
lfingers 7.12502
lthumb 21.6504 59.6406
rfemur -24.639 7.97378 10.4408
rtibia 35.9837
rfoot -12.563 -1.87755
rtoes 4.13822
lfemur -16.9872 3.78198 -22.1818
ltibia 37.2911
lfoot -23.2459 14.7423
ltoes 10.1064
